<?xml version="1.0" encoding="utf-8"?>
<!-- Generator: Adobe Illustrator 19.0.0, SVG Export Plug-In . SVG Version: 6.00 Build 0)  -->
<svg version="1.1" id="图层_1" xmlns="http://www.w3.org/2000/svg" xmlns:xlink="http://www.w3.org/1999/xlink" x="0px" y="0px"
	 viewBox="0 0 595.3 2636.2" style="enable-background:new 0 0 595.3 2636.2;" xml:space="preserve">
<style type="text/css">
	.st0{fill:url(#SVGID_1_);}
	.st1{fill:url(#SVGID_2_);}
	.st2{fill:url(#SVGID_3_);}
	.st3{fill:url(#SVGID_4_);}
	.st4{fill:url(#SVGID_5_);}
	.st5{fill:url(#SVGID_6_);}
	.st6{fill:url(#SVGID_7_);}
	.st7{fill:url(#SVGID_8_);}
	.st8{fill:url(#SVGID_9_);}
	.st9{fill:url(#SVGID_10_);}
</style>
<g>
	<linearGradient id="SVGID_1_" gradientUnits="userSpaceOnUse" x1="392.9101" y1="1250.6151" x2="287.9149" y2="1246.4814">
		<stop  offset="0" style="stop-color:#1DADE5"/>
		<stop  offset="0.5411" style="stop-color:#E63462"/>
		<stop  offset="0.9132" style="stop-color:#FFD900"/>
	</linearGradient>
	<path class="st0" d="M320.7,1249.3l1-7l15.4-24.4h-2.8h-17.2c-1.5,0-2.7,1.2-2.7,2.7s1.2,2.7,2.7,2.7h6.3c1.1,0,1.9,0.9,1.9,1.9
		c0,0.5-0.2,1-0.6,1.4c-0.3,0.3-0.8,0.6-1.4,0.6h-4v0h-10.2c-1.5,0-2.7,1.2-2.7,2.7s1.2,2.7,2.7,2.7h3.6v0h2.9c1.7,0,3,1.4,3,3
		c0,0.8-0.3,1.6-0.9,2.1c-0.5,0.5-1.3,0.9-2.1,0.9h-17.7c-1.5,0-2.7,1.2-2.7,2.7s1.2,2.7,2.7,2.7h9.8c2.1,0,3.8,1.7,3.8,3.8
		c0,1.1-0.4,2-1.1,2.7c-0.7,0.7-1.6,1.1-2.7,1.1h-2.9c-1.5,0-2.7,1.2-2.7,2.7s1.2,2.7,2.7,2.7h9.6c0.8,0,1.6,0.3,2.3,0.7
		c0.8,0.5,1.3,1.3,1.6,2.1c0,0,0,0,0,0c0.1,0.4,0.2,0.8,0.2,1.3c0,1.1-0.5,2.2-1.2,2.9c-0.7,0.7-1.8,1.2-2.9,1.2h-2.9v0h-0.7
		c-1.5,0-2.7,1.2-2.7,2.7c0,1.5,1.2,2.7,2.7,2.7h11.9v0h1.7c0.4,0,0.8,0.4,0.8,0.8c0,0.2-0.1,0.4-0.2,0.6c-0.1,0.1-0.3,0.2-0.6,0.2
		h-3.8c-1.5,0-2.7,1.2-2.7,2.7s1.2,2.7,2.7,2.7h13.7h4.6L320.7,1249.3z"/>
	<linearGradient id="SVGID_2_" gradientUnits="userSpaceOnUse" x1="392.9129" y1="1250.5422" x2="287.9178" y2="1246.4086">
		<stop  offset="0" style="stop-color:#1DADE5"/>
		<stop  offset="0.5411" style="stop-color:#E63462"/>
		<stop  offset="0.9132" style="stop-color:#FFD900"/>
	</linearGradient>
	<path class="st1" d="M345.5,1251.8h-29.6c-2,0-3.7-1.7-3.7-3.7c0-2,1.7-3.7,3.7-3.7h29.6c2,0,3.7,1.7,3.7,3.7
		C349.2,1250.1,347.6,1251.8,345.5,1251.8z"/>
	<linearGradient id="SVGID_3_" gradientUnits="userSpaceOnUse" x1="392.9686" y1="1249.1295" x2="287.9734" y2="1244.9958">
		<stop  offset="0" style="stop-color:#1DADE5"/>
		<stop  offset="0.5411" style="stop-color:#E63462"/>
		<stop  offset="0.9132" style="stop-color:#FFD900"/>
	</linearGradient>
	<path class="st2" d="M366.7,1278.2c-1.1,0-2.2-0.5-2.9-1.4l-21.1-26.4c-1.1-1.4-1.1-3.3,0-4.6l21.1-26.4c0.7-0.9,1.8-1.4,2.9-1.4
		s2.2,0.5,2.9,1.4l21.1,26.4c1.1,1.4,1.1,3.3,0,4.6l-21.1,26.4C368.9,1277.7,367.8,1278.2,366.7,1278.2z M350.3,1248.1l16.4,20.5
		l16.4-20.5l-16.4-20.5L350.3,1248.1z"/>
	<linearGradient id="SVGID_4_" gradientUnits="userSpaceOnUse" x1="387.2648" y1="1254.2219" x2="303.9301" y2="1251.2456">
		<stop  offset="0" style="stop-color:#1DADE5"/>
		<stop  offset="0.5411" style="stop-color:#E63462"/>
		<stop  offset="0.9132" style="stop-color:#FFD900"/>
	</linearGradient>
	<polygon class="st3" points="361.4,1262 355.5,1254.6 363.5,1244.6 	"/>
	<linearGradient id="SVGID_5_" gradientUnits="userSpaceOnUse" x1="387.6495" y1="1243.4508" x2="304.3148" y2="1240.4746">
		<stop  offset="0" style="stop-color:#1DADE5"/>
		<stop  offset="0.5411" style="stop-color:#E63462"/>
		<stop  offset="0.9132" style="stop-color:#FFD900"/>
	</linearGradient>
	<polygon class="st4" points="371.9,1234.2 377.8,1241.5 369.8,1251.5 	"/>
	<linearGradient id="SVGID_6_" gradientUnits="userSpaceOnUse" x1="392.9456" y1="1249.7117" x2="287.9505" y2="1245.578">
		<stop  offset="0" style="stop-color:#1DADE5"/>
		<stop  offset="0.5411" style="stop-color:#E63462"/>
		<stop  offset="0.9132" style="stop-color:#FFD900"/>
	</linearGradient>
	<path class="st5" d="M366.7,1278.2H337c-1.1,0-2.2-0.5-2.9-1.4l-21.1-26.4c-1.1-1.4-1.1-3.3,0-4.6l21.1-26.4
		c0.7-0.9,1.8-1.4,2.9-1.4h29.6c2,0,3.7,1.7,3.7,3.7c0,2-1.7,3.7-3.7,3.7h-27.8l-18.2,22.7l18.2,22.7h27.8c2,0,3.7,1.7,3.7,3.7
		C370.4,1276.5,368.7,1278.2,366.7,1278.2z"/>
	<linearGradient id="SVGID_7_" gradientUnits="userSpaceOnUse" x1="393.5727" y1="1233.7858" x2="288.5775" y2="1229.6521">
		<stop  offset="0" style="stop-color:#1DADE5"/>
		<stop  offset="0.5411" style="stop-color:#E63462"/>
		<stop  offset="0.9132" style="stop-color:#FFD900"/>
	</linearGradient>
	<polygon class="st6" points="354.8,1232.7 355.8,1231.3 342.2,1231.3 341.2,1232.7 	"/>
	<linearGradient id="SVGID_8_" gradientUnits="userSpaceOnUse" x1="393.3241" y1="1240.0991" x2="288.3289" y2="1235.9655">
		<stop  offset="0" style="stop-color:#1DADE5"/>
		<stop  offset="0.5411" style="stop-color:#E63462"/>
		<stop  offset="0.9132" style="stop-color:#FFD900"/>
	</linearGradient>
	<polygon class="st7" points="340.4,1238.4 341.4,1237.1 327.8,1237.1 326.7,1238.4 	"/>
	<linearGradient id="SVGID_9_" gradientUnits="userSpaceOnUse" x1="392.3083" y1="1265.9004" x2="287.3131" y2="1261.7667">
		<stop  offset="0" style="stop-color:#1DADE5"/>
		<stop  offset="0.5411" style="stop-color:#E63462"/>
		<stop  offset="0.9132" style="stop-color:#FFD900"/>
	</linearGradient>
	<polygon class="st8" points="354.8,1263.5 355.8,1264.8 342.2,1264.8 341.2,1263.5 	"/>
	<linearGradient id="SVGID_10_" gradientUnits="userSpaceOnUse" x1="392.5274" y1="1260.3351" x2="287.5323" y2="1256.2014">
		<stop  offset="0" style="stop-color:#1DADE5"/>
		<stop  offset="0.5411" style="stop-color:#E63462"/>
		<stop  offset="0.9132" style="stop-color:#FFD900"/>
	</linearGradient>
	<polygon class="st9" points="350.2,1257.8 351.3,1259.1 337.6,1259.1 336.6,1257.8 	"/>
</g>
</svg>
